<?xml version="1.0" encoding="UTF-8" standalone="no"?>
<!DOCTYPE svg PUBLIC "-//W3C//DTD SVG 1.1//EN"
 "http://www.w3.org/Graphics/SVG/1.1/DTD/svg11.dtd">
<!-- Generated by graphviz version 7.1.0 (0)
 -->
<!-- Pages: 1 -->
<svg width="241pt" height="130pt"
 viewBox="0.00 0.00 241.00 130.00" xmlns="http://www.w3.org/2000/svg" xmlns:xlink="http://www.w3.org/1999/xlink">
<g id="graph0" class="graph" transform="scale(1 1) rotate(0) translate(4 126)">
<polygon fill="#eeeeee" stroke="none" points="-4,4 -4,-126 237,-126 237,4 -4,4"/>
<!-- Item -->
<g id="node1" class="node">
<title>Item</title>
<g id="a_node1"><a xlink:href="http://Item_details.html" xlink:title="&lt;TABLE&gt;">
<polygon fill="#3f51b5" stroke="none" points="8.5,-99 8.5,-118 225.5,-118 225.5,-99 8.5,-99"/>
<polygon fill="none" stroke="black" points="8.5,-99 8.5,-118 225.5,-118 225.5,-99 8.5,-99"/>
<text text-anchor="start" x="89.5" y="-105.4" font-family="Roboto" font-size="12.00" fill="white">Item</text>
<polygon fill="#bbdefb" stroke="none" points="8.5,-80 8.5,-99 79.5,-99 79.5,-80 8.5,-80"/>
<polygon fill="none" stroke="black" points="8.5,-80 8.5,-99 79.5,-99 79.5,-80 8.5,-80"/>
<text text-anchor="start" x="38.5" y="-86.4" font-family="Roboto" font-size="12.00">id</text>
<polygon fill="#bbdefb" stroke="none" points="79.5,-80 79.5,-99 225.5,-99 225.5,-80 79.5,-80"/>
<polygon fill="none" stroke="black" points="79.5,-80 79.5,-99 225.5,-99 225.5,-80 79.5,-80"/>
<text text-anchor="start" x="114.5" y="-86.4" font-family="Roboto" font-size="12.00">INTEGER (PK)</text>
<polygon fill="#bbdefb" stroke="none" points="8.5,-61 8.5,-80 79.5,-80 79.5,-61 8.5,-61"/>
<polygon fill="none" stroke="black" points="8.5,-61 8.5,-80 79.5,-80 79.5,-61 8.5,-61"/>
<text text-anchor="start" x="33" y="-67.4" font-family="Roboto" font-size="12.00">title</text>
<polygon fill="#bbdefb" stroke="none" points="79.5,-61 79.5,-80 225.5,-80 225.5,-61 79.5,-61"/>
<polygon fill="none" stroke="black" points="79.5,-61 79.5,-80 225.5,-80 225.5,-61 79.5,-61"/>
<text text-anchor="start" x="82.5" y="-67.4" font-family="Roboto" font-size="12.00">VARCHAR (Unique,Index)</text>
<polygon fill="#bbdefb" stroke="none" points="8.5,-42 8.5,-61 79.5,-61 79.5,-42 8.5,-42"/>
<polygon fill="none" stroke="black" points="8.5,-42 8.5,-61 79.5,-61 79.5,-42 8.5,-42"/>
<text text-anchor="start" x="11.5" y="-48.4" font-family="Roboto" font-size="12.00">description</text>
<polygon fill="#bbdefb" stroke="none" points="79.5,-42 79.5,-61 225.5,-61 225.5,-42 79.5,-42"/>
<polygon fill="none" stroke="black" points="79.5,-42 79.5,-61 225.5,-61 225.5,-42 79.5,-42"/>
<text text-anchor="start" x="120.5" y="-48.4" font-family="Roboto" font-size="12.00">VARCHAR ()</text>
<polygon fill="#bbdefb" stroke="none" points="8.5,-23 8.5,-42 79.5,-42 79.5,-23 8.5,-23"/>
<polygon fill="none" stroke="black" points="8.5,-23 8.5,-42 79.5,-42 79.5,-23 8.5,-23"/>
<text text-anchor="start" x="20" y="-29.4" font-family="Roboto" font-size="12.00">checked</text>
<polygon fill="#bbdefb" stroke="none" points="79.5,-23 79.5,-42 225.5,-42 225.5,-23 79.5,-23"/>
<polygon fill="none" stroke="black" points="79.5,-23 79.5,-42 225.5,-42 225.5,-23 79.5,-23"/>
<text text-anchor="start" x="119.5" y="-29.4" font-family="Roboto" font-size="12.00">BOOLEAN ()</text>
<polygon fill="#bbdefb" stroke="none" points="8.5,-4 8.5,-23 79.5,-23 79.5,-4 8.5,-4"/>
<polygon fill="none" stroke="black" points="8.5,-4 8.5,-23 79.5,-23 79.5,-4 8.5,-4"/>
<text text-anchor="start" x="22.5" y="-10.4" font-family="Roboto" font-size="12.00">priority</text>
<polygon fill="#bbdefb" stroke="none" points="79.5,-4 79.5,-23 225.5,-23 225.5,-4 79.5,-4"/>
<polygon fill="none" stroke="black" points="79.5,-4 79.5,-23 225.5,-23 225.5,-4 79.5,-4"/>
<text text-anchor="start" x="122" y="-10.4" font-family="Roboto" font-size="12.00">INTEGER ()</text>
</a>
</g>
</g>
</g>
</svg>
