<?xml version="1.0" encoding="UTF-8" standalone="no"?>
<!DOCTYPE svg PUBLIC "-//W3C//DTD SVG 1.1//EN"
 "http://www.w3.org/Graphics/SVG/1.1/DTD/svg11.dtd">
<!-- Generated by graphviz version 7.1.0 (0)
 -->
<!-- Pages: 1 -->
<svg width="460pt" height="280pt"
 viewBox="0.00 0.00 460.00 280.00" xmlns="http://www.w3.org/2000/svg" xmlns:xlink="http://www.w3.org/1999/xlink">
<g id="graph0" class="graph" transform="scale(1 1) rotate(0) translate(4 276)">
<polygon fill="#eeeeee" stroke="none" points="-4,4 -4,-276 456,-276 456,4 -4,4"/>
<!-- Item -->
<g id="node1" class="node">
<title>Item</title>
<g id="a_node1"><a xlink:href="http://Item_details.html" xlink:title="&lt;TABLE&gt;">
<polygon fill="#3f51b5" stroke="none" points="8.5,-117.5 8.5,-136.5 225.5,-136.5 225.5,-117.5 8.5,-117.5"/>
<polygon fill="none" stroke="black" points="8.5,-117.5 8.5,-136.5 225.5,-136.5 225.5,-117.5 8.5,-117.5"/>
<text text-anchor="start" x="103.5" y="-123.9" font-family="Roboto" font-size="12.00" fill="white">Item</text>
<polygon fill="#bbdefb" stroke="none" points="8.5,-98.5 8.5,-117.5 79.5,-117.5 79.5,-98.5 8.5,-98.5"/>
<polygon fill="none" stroke="black" points="8.5,-98.5 8.5,-117.5 79.5,-117.5 79.5,-98.5 8.5,-98.5"/>
<text text-anchor="start" x="38.5" y="-104.9" font-family="Roboto" font-size="12.00">id</text>
<polygon fill="#bbdefb" stroke="none" points="79.5,-98.5 79.5,-117.5 225.5,-117.5 225.5,-98.5 79.5,-98.5"/>
<polygon fill="none" stroke="black" points="79.5,-98.5 79.5,-117.5 225.5,-117.5 225.5,-98.5 79.5,-98.5"/>
<text text-anchor="start" x="114.5" y="-104.9" font-family="Roboto" font-size="12.00">INTEGER (PK)</text>
<polygon fill="#bbdefb" stroke="none" points="8.5,-79.5 8.5,-98.5 79.5,-98.5 79.5,-79.5 8.5,-79.5"/>
<polygon fill="none" stroke="black" points="8.5,-79.5 8.5,-98.5 79.5,-98.5 79.5,-79.5 8.5,-79.5"/>
<text text-anchor="start" x="33" y="-85.9" font-family="Roboto" font-size="12.00">title</text>
<polygon fill="#bbdefb" stroke="none" points="79.5,-79.5 79.5,-98.5 225.5,-98.5 225.5,-79.5 79.5,-79.5"/>
<polygon fill="none" stroke="black" points="79.5,-79.5 79.5,-98.5 225.5,-98.5 225.5,-79.5 79.5,-79.5"/>
<text text-anchor="start" x="82.5" y="-85.9" font-family="Roboto" font-size="12.00">VARCHAR (Unique,Index)</text>
<polygon fill="#bbdefb" stroke="none" points="8.5,-60.5 8.5,-79.5 79.5,-79.5 79.5,-60.5 8.5,-60.5"/>
<polygon fill="none" stroke="black" points="8.5,-60.5 8.5,-79.5 79.5,-79.5 79.5,-60.5 8.5,-60.5"/>
<text text-anchor="start" x="11.5" y="-66.9" font-family="Roboto" font-size="12.00">description</text>
<polygon fill="#bbdefb" stroke="none" points="79.5,-60.5 79.5,-79.5 225.5,-79.5 225.5,-60.5 79.5,-60.5"/>
<polygon fill="none" stroke="black" points="79.5,-60.5 79.5,-79.5 225.5,-79.5 225.5,-60.5 79.5,-60.5"/>
<text text-anchor="start" x="120.5" y="-66.9" font-family="Roboto" font-size="12.00">VARCHAR ()</text>
<polygon fill="#bbdefb" stroke="none" points="8.5,-41.5 8.5,-60.5 79.5,-60.5 79.5,-41.5 8.5,-41.5"/>
<polygon fill="none" stroke="black" points="8.5,-41.5 8.5,-60.5 79.5,-60.5 79.5,-41.5 8.5,-41.5"/>
<text text-anchor="start" x="20" y="-47.9" font-family="Roboto" font-size="12.00">checked</text>
<polygon fill="#bbdefb" stroke="none" points="79.5,-41.5 79.5,-60.5 225.5,-60.5 225.5,-41.5 79.5,-41.5"/>
<polygon fill="none" stroke="black" points="79.5,-41.5 79.5,-60.5 225.5,-60.5 225.5,-41.5 79.5,-41.5"/>
<text text-anchor="start" x="119.5" y="-47.9" font-family="Roboto" font-size="12.00">BOOLEAN ()</text>
<polygon fill="#bbdefb" stroke="none" points="8.5,-22.5 8.5,-41.5 79.5,-41.5 79.5,-22.5 8.5,-22.5"/>
<polygon fill="none" stroke="black" points="8.5,-22.5 8.5,-41.5 79.5,-41.5 79.5,-22.5 8.5,-22.5"/>
<text text-anchor="start" x="22.5" y="-28.9" font-family="Roboto" font-size="12.00">priority</text>
<polygon fill="#bbdefb" stroke="none" points="79.5,-22.5 79.5,-41.5 225.5,-41.5 225.5,-22.5 79.5,-22.5"/>
<polygon fill="none" stroke="black" points="79.5,-22.5 79.5,-41.5 225.5,-41.5 225.5,-22.5 79.5,-22.5"/>
<text text-anchor="start" x="122" y="-28.9" font-family="Roboto" font-size="12.00">INTEGER ()</text>
<polygon fill="#bbdefb" stroke="none" points="8.5,-3.5 8.5,-22.5 79.5,-22.5 79.5,-3.5 8.5,-3.5"/>
<polygon fill="none" stroke="black" points="8.5,-3.5 8.5,-22.5 79.5,-22.5 79.5,-3.5 8.5,-3.5"/>
<text text-anchor="start" x="11.5" y="-9.9" font-family="Roboto" font-size="12.00">todo_list_id</text>
<polygon fill="#bbdefb" stroke="none" points="79.5,-3.5 79.5,-22.5 225.5,-22.5 225.5,-3.5 79.5,-3.5"/>
<polygon fill="none" stroke="black" points="79.5,-3.5 79.5,-22.5 225.5,-22.5 225.5,-3.5 79.5,-3.5"/>
<text text-anchor="start" x="122" y="-9.9" font-family="Roboto" font-size="12.00">INTEGER ()</text>
</a>
</g>
</g>
<!-- TodoList -->
<g id="node2" class="node">
<title>TodoList</title>
<g id="a_node2"><a xlink:href="http://TodoList_details.html" xlink:title="&lt;TABLE&gt;">
<polygon fill="#3f51b5" stroke="none" points="153.5,-249 153.5,-268 313.5,-268 313.5,-249 153.5,-249"/>
<polygon fill="none" stroke="black" points="153.5,-249 153.5,-268 313.5,-268 313.5,-249 153.5,-249"/>
<text text-anchor="start" x="209" y="-255.4" font-family="Roboto" font-size="12.00" fill="white">TodoList</text>
<polygon fill="#bbdefb" stroke="none" points="153.5,-230 153.5,-249 211.5,-249 211.5,-230 153.5,-230"/>
<polygon fill="none" stroke="black" points="153.5,-230 153.5,-249 211.5,-249 211.5,-230 153.5,-230"/>
<text text-anchor="start" x="177" y="-236.4" font-family="Roboto" font-size="12.00">id</text>
<polygon fill="#bbdefb" stroke="none" points="211.5,-230 211.5,-249 313.5,-249 313.5,-230 211.5,-230"/>
<polygon fill="none" stroke="black" points="211.5,-230 211.5,-249 313.5,-249 313.5,-230 211.5,-230"/>
<text text-anchor="start" x="224.5" y="-236.4" font-family="Roboto" font-size="12.00">INTEGER (PK)</text>
<polygon fill="#bbdefb" stroke="none" points="153.5,-211 153.5,-230 211.5,-230 211.5,-211 153.5,-211"/>
<polygon fill="none" stroke="black" points="153.5,-211 153.5,-230 211.5,-230 211.5,-211 153.5,-211"/>
<text text-anchor="start" x="171.5" y="-217.4" font-family="Roboto" font-size="12.00">title</text>
<polygon fill="#bbdefb" stroke="none" points="211.5,-211 211.5,-230 313.5,-230 313.5,-211 211.5,-211"/>
<polygon fill="none" stroke="black" points="211.5,-211 211.5,-230 313.5,-230 313.5,-211 211.5,-211"/>
<text text-anchor="start" x="214.5" y="-217.4" font-family="Roboto" font-size="12.00">VARCHAR (Index)</text>
<polygon fill="#bbdefb" stroke="none" points="153.5,-192 153.5,-211 211.5,-211 211.5,-192 153.5,-192"/>
<polygon fill="none" stroke="black" points="153.5,-192 153.5,-211 211.5,-211 211.5,-192 153.5,-192"/>
<text text-anchor="start" x="156.5" y="-198.4" font-family="Roboto" font-size="12.00">owner_id</text>
<polygon fill="#bbdefb" stroke="none" points="211.5,-192 211.5,-211 313.5,-211 313.5,-192 211.5,-192"/>
<polygon fill="none" stroke="black" points="211.5,-192 211.5,-211 313.5,-211 313.5,-192 211.5,-192"/>
<text text-anchor="start" x="232" y="-198.4" font-family="Roboto" font-size="12.00">INTEGER ()</text>
</a>
</g>
</g>
<!-- TodoList&#45;&gt;Item -->
<g id="edge1" class="edge">
<title>TodoList&#45;&gt;Item</title>
<g id="a_edge1"><a xlink:title="Relation between TodoList and Item">
<path fill="none" stroke="#1e88e5" stroke-dasharray="5,2" d="M203.07,-188.03C194.37,-176.33 184.6,-163.17 174.83,-150.02"/>
<polygon fill="#1e88e5" stroke="#1e88e5" points="177.76,-148.09 168.98,-142.15 172.14,-152.26 177.76,-148.09"/>
</a>
</g>
<text text-anchor="middle" x="202.5" y="-162" font-family="Roboto" font-size="10.00">items</text>
</g>
<!-- Owner -->
<g id="node3" class="node">
<title>Owner</title>
<g id="a_node3"><a xlink:href="http://Owner_details.html" xlink:title="&lt;TABLE&gt;">
<polygon fill="#3f51b5" stroke="none" points="259.5,-79.5 259.5,-98.5 444.5,-98.5 444.5,-79.5 259.5,-79.5"/>
<polygon fill="none" stroke="black" points="259.5,-79.5 259.5,-98.5 444.5,-98.5 444.5,-79.5 259.5,-79.5"/>
<text text-anchor="start" x="332.5" y="-85.9" font-family="Roboto" font-size="12.00" fill="white">Owner</text>
<polygon fill="#bbdefb" stroke="none" points="259.5,-60.5 259.5,-79.5 298.5,-79.5 298.5,-60.5 259.5,-60.5"/>
<polygon fill="none" stroke="black" points="259.5,-60.5 259.5,-79.5 298.5,-79.5 298.5,-60.5 259.5,-60.5"/>
<text text-anchor="start" x="273.5" y="-66.9" font-family="Roboto" font-size="12.00">id</text>
<polygon fill="#bbdefb" stroke="none" points="298.5,-60.5 298.5,-79.5 444.5,-79.5 444.5,-60.5 298.5,-60.5"/>
<polygon fill="none" stroke="black" points="298.5,-60.5 298.5,-79.5 444.5,-79.5 444.5,-60.5 298.5,-60.5"/>
<text text-anchor="start" x="333.5" y="-66.9" font-family="Roboto" font-size="12.00">INTEGER (PK)</text>
<polygon fill="#bbdefb" stroke="none" points="259.5,-41.5 259.5,-60.5 298.5,-60.5 298.5,-41.5 259.5,-41.5"/>
<polygon fill="none" stroke="black" points="259.5,-41.5 259.5,-60.5 298.5,-60.5 298.5,-41.5 259.5,-41.5"/>
<text text-anchor="start" x="262.5" y="-47.9" font-family="Roboto" font-size="12.00">name</text>
<polygon fill="#bbdefb" stroke="none" points="298.5,-41.5 298.5,-60.5 444.5,-60.5 444.5,-41.5 298.5,-41.5"/>
<polygon fill="none" stroke="black" points="298.5,-41.5 298.5,-60.5 444.5,-60.5 444.5,-41.5 298.5,-41.5"/>
<text text-anchor="start" x="301.5" y="-47.9" font-family="Roboto" font-size="12.00">VARCHAR (Unique,Index)</text>
</a>
</g>
</g>
<!-- TodoList&#45;&gt;Owner -->
<g id="edge2" class="edge">
<title>TodoList&#45;&gt;Owner</title>
<g id="a_edge2"><a xlink:title="Relation between TodoList and Owner">
<path fill="none" stroke="#1e88e5" stroke-dasharray="5,2" d="M264.2,-188.03C281.8,-164.53 303.81,-135.16 321.32,-111.78"/>
<polygon fill="#1e88e5" stroke="#1e88e5" points="323.94,-114.13 327.13,-104.03 318.33,-109.93 323.94,-114.13"/>
</a>
</g>
<text text-anchor="middle" x="301" y="-162" font-family="Roboto" font-size="10.00">owner</text>
</g>
</g>
</svg>
